PathFileType	4	(X/Y/Z)	23_1_48_p1_0-335_filt_butterworth.trc
DataRate	CameraRate	NumFrames	NumMarkers	Units	OrigDataRate	OrigDataStartFrame	OrigNumFrames
59.0	59.0	6	27	m	59.0	293	335
Frame#	Time	RHip			RKnee			RAnkle			RBigToe			RSmallToe			RHeel			LHip			LKnee			LAnkle			LBigToe			LSmallToe			LHeel			Neck			Head			Nose			RShoulder			RElbow			RWrist			RThumb			RIndex			RPinky			LShoulder			LElbow			LWrist			LThumb			LIndex			LPinky			
		X1	Y1	Z1	X2	Y2	Z2	X3	Y3	Z3	X4	Y4	Z4	X5	Y5	Z5	X6	Y6	Z6	X7	Y7	Z7	X8	Y8	Z8	X9	Y9	Z9	X10	Y10	Z10	X11	Y11	Z11	X12	Y12	Z12	X13	Y13	Z13	X14	Y14	Z14	X15	Y15	Z15	X16	Y16	Z16	X17	Y17	Z17	X18	Y18	Z18	X19	Y19	Z19	X20	Y20	Z20	X21	Y21	Z21	X22	Y22	Z22	X23	Y23	Z23	X24	Y24	Z24	X25	Y25	Z25	X26	Y26	Z26	X27	Y27	Z27	
293	4.966101694915254	0.18532312552631638	0.5036960559247451	1.017867807657899	0.1730717840671171	0.5045668697199046	1.4200520468232372	0.16820726834818392	0.5428091265325972	1.7993480699347204	0.15200366781483488	0.4177630232370662	1.8293325005092314	0.21887110066303128	0.4266828139958332	1.8203697302702067	0.14650417706461719	0.615653995454513	1.8707269221516152	-0.024775682082392135	0.5157980618455057	1.0013979195457197	-0.0329492885298032	0.5447782650255204	1.4069108848949208	-0.03476388778718014	0.5637489149404844	1.8137643878477774	-0.027209372886951726	0.4359204363925643	1.8367567468478445	-0.08893378074605181	0.45688867222076474	1.831695109601458	-0.02617454970040222	0.5948784631582779	1.8687174298100082	0.10579267251760524	0.41369961837153657	0.44333690486778454	0.11833298921864774	0.3313364752879929	0.20734605705135448	0.0950871721129096	0.2898137532894107	0.32803785651025497	0.2668413992947679	0.3699483622178926	0.5419185686832585	0.2769277734800981	0.45174594914179	0.8228081053011204	0.2743308045206856	0.3155578022380121	1.0154400401758374	0.2839501012274485	0.20263782467805022	1.090554464322787	0.3033685300386944	0.21898534683872153	1.1131796436084151	0.3180242933744691	0.31915696032576296	1.1483059297649414	-0.04719021267160541	0.4854770958870731	0.5047405946182746	-0.13817303652394458	0.4976845805664229	0.7497027867848287	-0.2539133102709719	0.5088621900201289	0.9475234344246957	-0.34777981844309613	0.49968892015271404	1.0153767113943097	-0.3692978615830205	0.5107340558050528	1.0178744314957653	-0.35317277719125867	0.5310213521179539	1.0319330502781456
294	4.983050847457627	0.18621506062522494	0.5012523313093553	1.0142748400766974	0.17513294083246103	0.5079026342123554	1.4166833963393886	0.16820288934719735	0.5431897649166567	1.7975414202917352	0.1522557166093134	0.4172609046541073	1.8295405821022097	0.21827127691277418	0.41764659001585513	1.8153303427312484	0.14467335170011225	0.6145685208377382	1.8692894627574985	-0.02651568631903644	0.5156045027388286	0.9989262118816797	-0.03313618599421654	0.5453781075302618	1.4051832132522628	-0.03555481339277156	0.563020432973103	1.813108872509352	-0.02336281586838272	0.4318298687254933	1.835909274678512	-0.08594868055562668	0.45328755871348575	1.8291920030303779	-0.02656758858046726	0.5957513028709511	1.8700483300331086	0.10539990694556495	0.4142360556087988	0.4430749091011936	0.11322853318117271	0.3335186254912887	0.20711420683008708	0.09146695160411436	0.2870109441228026	0.3255117093391474	0.2650876832911864	0.36991898453984023	0.5410987084762384	0.28390861645877963	0.4623216605276442	0.8235608490262865	0.27712311932059247	0.32194673082963693	1.0142297875364346	0.2835840396352256	0.2060811599174408	1.0920451910816142	0.3067806280959686	0.23128494270972302	1.1165220756546304	0.33120872801611767	0.3446719405195517	1.1534861250113608	-0.05042085287418772	0.4874934795418027	0.5049089450791564	-0.1382446957943652	0.4984871621192178	0.7500184636515608	-0.24977885534883557	0.5032200860598934	0.9475003737466094	-0.3372425873643012	0.4780008790032792	1.019665034554141	-0.35752424495439744	0.4863374312772721	1.0186980664751992	-0.35207446801801057	0.526918013931428	1.032468022692432
295	5.0	0.18714648450597432	0.4975866465450576	1.0118995686234409	0.17906377503618184	0.5126564218855593	1.4132909873022925	0.16821829495422855	0.5438177142640307	1.796705727882666	0.15248823310739687	0.41692605048382275	1.8295394450763882	0.21787835882352807	0.4103977423319451	1.8120694296305075	0.14360936256152712	0.6146058476482811	1.8690952913191867	-0.028689632452668985	0.5189883289475489	0.9960577338787509	-0.03289666767216464	0.5461979982605447	1.4026025197834666	-0.0370247601968686	0.5598952035685058	1.8110529880816297	-0.021167611961066996	0.42316931250674783	1.8320906215261816	-0.08434927028439801	0.4483779134964616	1.826956645670907	-0.026920441797772022	0.5963092155528328	1.8701470480277087	0.10433552194693958	0.41426713501042095	0.44215100193468054	0.10828834473935792	0.3375183380967446	0.20702109115134032	0.08779335844839525	0.28446036126734275	0.3232010793291364	0.2636623793942784	0.37008783068241663	0.540559060516611	0.2887159419964993	0.4650672772299289	0.8231993403286628	0.28176303291638416	0.329234707081668	1.0134683250494192	0.2840994393002564	0.20669490601352855	1.0910598661964364	0.31161167735844547	0.24347239699019332	1.1178386148167572	0.3465029471902341	0.3674961269720697	1.156421512914173	-0.05284956164206287	0.48881940520118417	0.5053003719096901	-0.1392822242519849	0.5020324174985689	0.7520523544546361	-0.2457058796285997	0.49506840268001084	0.9471647451359286	-0.3217978005467342	0.43584254212538437	1.0130685328541276	-0.34174574992617246	0.4500189567341344	1.01359461354006	-0.3476959995089696	0.5159060288914603	1.032867886376044
296	5.016949152542373	0.18834660261796407	0.4957474730014302	1.0102494526141992	0.18480702383456038	0.5165059660306935	1.4097016574559496	0.16824702589665244	0.5445473575647242	1.7965757830641902	0.15273309705671884	0.41668955343988623	1.8287259199561088	0.21815159860416442	0.4077968013637302	1.8119342837150505	0.1434418448332926	0.6167611742827825	1.869934571399607	-0.03040273611016083	0.5239935908997753	0.9929676386578141	-0.031990452312262774	0.5472189982561259	1.3997945112159227	-0.03873827862164426	0.5552728040503794	1.8082445283873216	-0.021095762216720243	0.414454017433311	1.8274623225764053	-0.08375469978369464	0.4442973583222407	1.8257226492708865	-0.027170671956237534	0.5963588322890021	1.8698923735445654	0.10242530396585087	0.41326706677321184	0.4407923889499499	0.10394606844716023	0.34416410740180503	0.20687757282260608	0.08468249794427153	0.2824580274049681	0.3212899205908326	0.26279057077781437	0.3704450529936437	0.5401121391835282	0.29227614672863306	0.4601636315114237	0.8216586372799193	0.2884816516794397	0.3377490409675593	1.0141453933664746	0.2866279440751895	0.2072253588228291	1.0886763711129148	0.319013094623876	0.25321758894030694	1.117768562283544	0.357155772216497	0.38096858951518264	1.1565595682624876	-0.054340080153695396	0.48849988447461945	0.5061449921977428	-0.14129000787739288	0.5083081509613561	0.7553458268701321	-0.24166720959128232	0.4851259088571618	0.9476766496022175	-0.30374340416854523	0.3883788655371667	1.0016528854393911	-0.3262723074262405	0.4126446232883929	1.0057384910379665	-0.33849228471502	0.49496409725911916	1.0313484027267263
297	5.033898305084746	0.18970880446618404	0.4992018724004903	1.0090705384349805	0.19117992643842188	0.5182673039858127	1.404723707304559	0.16827672691908774	0.5452014555788128	1.7962140109348042	0.15306151889284364	0.41648658041823017	1.8271082871893394	0.2184846365895528	0.4082721135112227	1.8130886933520145	0.14378251820578303	0.6206587114367242	1.8709313831866123	-0.0316747947255861	0.5278600237205656	0.9904326059353425	-0.030405300778597273	0.5482790530388987	1.397274013266468	-0.03991977139798997	0.5516377053895068	1.8062212874781503	-0.02246048269296895	0.4080755718050681	1.8233366638867676	-0.08374142593257526	0.44127887357662954	1.824978175737824	-0.027569583923380322	0.5953100969606425	1.8701704464832138	0.10006342581905839	0.41045652924251075	0.4395242437553416	0.10070237644713904	0.3512853736206028	0.2064114243630968	0.0824917094719085	0.2800370729301511	0.32005762316116143	0.2619180508919697	0.37086054750925973	0.5397800518570922	0.29566530410295633	0.4512115756325026	0.8193837836243962	0.29689967661308014	0.346441116555419	1.016578064960709	0.29071939700414234	0.2116933854809872	1.0879329746986617	0.3295918786254897	0.26130806185504296	1.1184337511189364	0.3613959947396274	0.38353854207519816	1.1538416278864563	-0.05563006364854842	0.4875878747454429	0.5071829249128675	-0.1433867563121829	0.5147148461169232	0.7581366612507567	-0.23698240581915256	0.47295165366566067	0.9496332748859245	-0.28576851525254093	0.3559285086776627	0.9952547102480118	-0.313121618959505	0.38071136795249017	0.9996547213777259	-0.3270218646198876	0.4672384645666186	1.027293093333268
298	5.050847457627119	0.19083929321463572	0.5067134052284774	1.0083465439577317	0.19624486333176663	0.5185919111101044	1.399673532466361	0.16831243212281902	0.5455108303779415	1.7956377899300915	0.1533364068121106	0.41635462240440546	1.8256271911035777	0.21786995407178622	0.40936377072770447	1.8134055585019002	0.14461865871843554	0.6244413021857312	1.8714653459823698	-0.03249757489039219	0.5294626019867279	0.9894583643761083	-0.028709634845496976	0.5490955410553084	1.3957765776050624	-0.04020924692674001	0.5501775529713526	1.8056572391144126	-0.02422880732330047	0.40382561906324754	1.8196516191014114	-0.08443228999817627	0.43781313226983337	1.8240183298146522	-0.028167892895857787	0.5925022174029967	1.87057272512691	0.09794186580998851	0.4065602769644955	0.4387029623588658	0.09879328432322892	0.3567776908065761	0.20577845259706729	0.08087258405163743	0.2770944808238776	0.31958636648575445	0.2603227196590112	0.3714756372665892	0.5396830579211429	0.29899827170257776	0.44120672282875784	0.8166817960336532	0.30571418309069803	0.3537918028257279	1.0195355749703736	0.29483473660894527	0.2243901677984853	1.0915976355841719	0.34149042340588187	0.2698069580257444	1.1218006593022631	0.3617060535979494	0.37890458868422566	1.1497184012026611	-0.057270311808964545	0.48721153685039487	0.5082006745079152	-0.1449377295318113	0.5187944181627469	0.7591663115719857	-0.23167928600004994	0.46007944920666144	0.9534700574296981	-0.2685449067602177	0.3496304902475732	1.001634737471608	-0.3010981659289349	0.35568111172360584	1.0010488318716675	-0.3180348086870496	0.44173727818307656	1.0239414250572256
